<svg width="152" height="66" viewBox="0 0 152 66" fill="none" xmlns="http://www.w3.org/2000/svg">
<path d="M75.9453 24.1478L54.8112 3.08359C54.8052 3.07568 54.797 3.06925 54.7882 3.06484C54.779 3.06042 54.7691 3.05814 54.7593 3.05814C54.7494 3.05814 54.7396 3.06042 54.7303 3.06484C54.7216 3.06925 54.7134 3.07568 54.7073 3.08359L3.50107 60.5157C3.48292 60.5348 3.47188 60.5593 3.46964 60.5849C3.46745 60.6111 3.47428 60.6372 3.48899 60.659C3.5037 60.6808 3.52534 60.6966 3.55044 60.7043C3.57553 60.7119 3.60248 60.7108 3.6268 60.701L24.3236 52.635C24.3447 52.6263 24.3682 52.6263 24.3892 52.635L32.5892 58.085C32.603 58.0964 32.6204 58.103 32.6384 58.103C32.6564 58.103 32.6738 58.0964 32.6876 58.085L54.0951 32.0231C54.1022 32.0158 54.1109 32.0101 54.1202 32.0061C54.1295 32.0022 54.1394 32.0002 54.1497 32.0002C54.1601 32.0002 54.17 32.0022 54.1793 32.0061C54.1886 32.0101 54.1973 32.0158 54.2044 32.0231L70.8176 47.5283C70.8242 47.5354 70.8324 47.5411 70.8411 47.545C70.8504 47.5488 70.8597 47.5508 70.8695 47.5508C70.8794 47.5508 70.8887 47.5488 70.898 47.545C70.9067 47.5411 70.9149 47.5354 70.9215 47.5283L103.06 12.7301C103.067 12.7221 103.075 12.7156 103.085 12.7112C103.094 12.7068 103.104 12.7045 103.115 12.7045C103.125 12.7045 103.135 12.7068 103.145 12.7112C103.155 12.7156 103.163 12.7221 103.169 12.7301L148.663 62.6139C148.69 62.6434 148.705 62.681 148.708 62.7202C148.71 62.76 148.699 62.7992 148.676 62.8314C148.653 62.8635 148.62 62.8875 148.581 62.8984C148.544 62.9093 148.503 62.9071 148.466 62.8919L119.733 51.2561C119.722 51.2496 119.709 51.2458 119.695 51.2458C119.681 51.2458 119.668 51.2496 119.657 51.2561L110.533 59.4311C110.518 59.4431 110.5 59.4497 110.481 59.4497C110.462 59.4497 110.444 59.4431 110.429 59.4311L91.1372 39.2661" stroke="white" stroke-width="5" stroke-miterlimit="10"/>
</svg>
