<svg width="49" height="49" viewBox="0 0 49 49" fill="none" xmlns="http://www.w3.org/2000/svg">
<circle cx="24.5" cy="24.5" r="24.5" fill="#FF9200"/>
<path d="M13 23.5C12.1716 23.5 11.5 24.1716 11.5 25C11.5 25.8284 12.1716 26.5 13 26.5V23.5ZM36.0607 26.0607C36.6464 25.4749 36.6464 24.5251 36.0607 23.9393L26.5147 14.3934C25.9289 13.8076 24.9792 13.8076 24.3934 14.3934C23.8076 14.9792 23.8076 15.9289 24.3934 16.5147L32.8787 25L24.3934 33.4853C23.8076 34.0711 23.8076 35.0208 24.3934 35.6066C24.9792 36.1924 25.9289 36.1924 26.5147 35.6066L36.0607 26.0607ZM13 26.5H35V23.5H13V26.5Z" fill="white"/>
</svg>
