<svg width="39" height="39" viewBox="0 0 39 39" fill="none" xmlns="http://www.w3.org/2000/svg">
<path d="M33.2323 21.7801L21.9045 32.9672C21.1535 33.7085 20.135 34.125 19.0731 34.125C18.0111 34.125 16.9926 33.7085 16.2416 32.9672L4.91378 21.7821C3.97738 20.8656 3.23354 19.7754 2.72496 18.5743C2.21639 17.3731 1.95311 16.0846 1.95022 14.7827C1.94733 13.4808 2.2049 12.1912 2.70814 10.9878C3.21138 9.78449 3.95038 8.69114 4.88271 7.77056C5.81503 6.84998 6.92233 6.12029 8.14103 5.62339C9.35973 5.1265 10.6658 4.87217 11.9843 4.87502C13.3028 4.87787 14.6078 5.13784 15.8243 5.64001C17.0408 6.14217 18.1448 6.87664 19.0731 7.80124C20.9585 5.98591 23.4923 4.97712 26.1257 4.99341C28.7591 5.00971 31.2799 6.04976 33.1422 7.88829C35.0044 9.72681 36.0581 12.2157 36.075 14.8159C36.0919 17.4161 35.0706 19.9182 33.2323 21.7801Z" stroke="black" stroke-width="3" stroke-linecap="round" stroke-linejoin="round"/>
</svg>
