<svg width="31" height="28" viewBox="0 0 31 28" fill="none" xmlns="http://www.w3.org/2000/svg">
<path d="M26.4153 15.8124L17.4111 24.7047C16.8141 25.294 16.0046 25.625 15.1605 25.625C14.3163 25.625 13.5068 25.294 12.9098 24.7047L3.90566 15.814C3.16134 15.0855 2.57008 14.2189 2.16583 13.2642C1.76158 12.3094 1.5523 11.2852 1.55001 10.2504C1.54771 9.21552 1.75245 8.19042 2.15246 7.23392C2.55247 6.27741 3.13988 5.40834 3.88096 4.6766C4.62204 3.94485 5.5022 3.36485 6.47091 2.96988C7.43962 2.57491 8.4778 2.37275 9.52584 2.37502C10.5739 2.37728 11.6112 2.58393 12.5781 2.98308C13.5451 3.38224 14.4226 3.96605 15.1605 4.70099C16.6591 3.25803 18.6732 2.45617 20.7664 2.46912C22.8596 2.48207 24.8634 3.30879 26.3436 4.77018C27.8239 6.23156 28.6614 8.20995 28.6748 10.2768C28.6882 12.3436 27.8764 14.3324 26.4153 15.8124Z" stroke="white" stroke-width="3" stroke-linecap="round" stroke-linejoin="round"/>
</svg>
