<svg width="31" height="32" viewBox="0 0 31 32" fill="none" xmlns="http://www.w3.org/2000/svg">
<path d="M8.52499 16.775H26.6379C26.8974 16.7785 27.1496 16.6888 27.3487 16.5222C27.5477 16.3556 27.6805 16.1232 27.7228 15.8671L29.5386 7.00999C29.5677 6.85071 29.5616 6.68697 29.5206 6.53032C29.4795 6.37367 29.4047 6.22792 29.3012 6.10335C29.1978 5.97877 29.0682 5.87841 28.9218 5.80934C28.7753 5.74027 28.6155 5.70416 28.4536 5.70357H6.31071M8.52499 16.775L6.31071 5.70357M8.52499 16.775L9.45499 21.425C9.50604 21.6751 9.64192 21.8998 9.83964 22.0612C10.0374 22.2226 10.2848 22.3108 10.54 22.3107H24.025M6.31071 5.70357L5.38071 2.16071C5.32966 1.91063 5.19378 1.68588 4.99607 1.52448C4.79835 1.36307 4.55094 1.27494 4.29571 1.27499H0.774994M22.9179 30.0607C22.6242 30.0607 22.3426 29.9441 22.135 29.7364C21.9274 29.5288 21.8107 29.2472 21.8107 28.9536C21.8107 28.6599 21.9274 28.3783 22.135 28.1707C22.3426 27.9631 22.6242 27.8464 22.9179 27.8464C23.2115 27.8464 23.4931 27.9631 23.7007 28.1707C23.9083 28.3783 24.025 28.6599 24.025 28.9536C24.025 29.2472 23.9083 29.5288 23.7007 29.7364C23.4931 29.9441 23.2115 30.0607 22.9179 30.0607ZM11.8464 30.0607C11.5528 30.0607 11.2712 29.9441 11.0636 29.7364C10.8559 29.5288 10.7393 29.2472 10.7393 28.9536C10.7393 28.6599 10.8559 28.3783 11.0636 28.1707C11.2712 27.9631 11.5528 27.8464 11.8464 27.8464C12.1401 27.8464 12.4217 27.9631 12.6293 28.1707C12.8369 28.3783 12.9536 28.6599 12.9536 28.9536C12.9536 29.2472 12.8369 29.5288 12.6293 29.7364C12.4217 29.9441 12.1401 30.0607 11.8464 30.0607Z" stroke="white" stroke-width="3" stroke-linecap="round" stroke-linejoin="round"/>
</svg>
